<svg xmlns="http://www.w3.org/2000/svg" width="512" height="512" viewBox="0 0 512 512">
  <defs>
    <linearGradient id="g" x1="0" y1="0" x2="1" y2="1">
      <stop offset="0%" stop-color="#ecfeff"/>
      <stop offset="100%" stop-color="#f0fdf4"/>
    </linearGradient>
  </defs>
  <rect x="0" y="0" width="512" height="512" rx="24" fill="url(#g)"/>
  <rect x="56" y="56" width="400" height="400" rx="20" fill="#ffffff" stroke="#d1fae5" stroke-width="6"/>
  <g fill="#10b981">
    <rect x="92" y="92" width="70" height="70" rx="8"/>
    <rect x="350" y="92" width="70" height="70" rx="8"/>
    <rect x="92" y="350" width="70" height="70" rx="8"/>
  </g>
  <g fill="#9ca3af">
    <rect x="198" y="96" width="20" height="20" rx="4"/>
    <rect x="230" y="96" width="20" height="20" rx="4"/>
    <rect x="262" y="96" width="20" height="20" rx="4"/>
    <rect x="198" y="128" width="20" height="20" rx="4"/>
    <rect x="262" y="128" width="20" height="20" rx="4"/>
    <rect x="198" y="160" width="20" height="20" rx="4"/>
    <rect x="230" y="160" width="20" height="20" rx="4"/>
    <rect x="262" y="160" width="20" height="20" rx="4"/>

    <rect x="92" y="198" width="20" height="20" rx="4"/>
    <rect x="124" y="198" width="20" height="20" rx="4"/>
    <rect x="156" y="198" width="20" height="20" rx="4"/>
    <rect x="188" y="198" width="20" height="20" rx="4"/>
    <rect x="220" y="198" width="20" height="20" rx="4"/>
    <rect x="252" y="198" width="20" height="20" rx="4"/>
    <rect x="284" y="198" width="20" height="20" rx="4"/>
    <rect x="316" y="198" width="20" height="20" rx="4"/>
    <rect x="348" y="198" width="20" height="20" rx="4"/>
    <rect x="380" y="198" width="20" height="20" rx="4"/>

    <rect x="198" y="230" width="20" height="20" rx="4"/>
    <rect x="230" y="230" width="20" height="20" rx="4"/>
    <rect x="262" y="230" width="20" height="20" rx="4"/>
    <rect x="294" y="230" width="20" height="20" rx="4"/>
    <rect x="326" y="230" width="20" height="20" rx="4"/>

    <rect x="198" y="262" width="20" height="20" rx="4"/>
    <rect x="262" y="262" width="20" height="20" rx="4"/>
    <rect x="326" y="262" width="20" height="20" rx="4"/>

    <rect x="198" y="294" width="20" height="20" rx="4"/>
    <rect x="230" y="294" width="20" height="20" rx="4"/>
    <rect x="262" y="294" width="20" height="20" rx="4"/>
    <rect x="294" y="294" width="20" height="20" rx="4"/>
    <rect x="326" y="294" width="20" height="20" rx="4"/>

    <rect x="350" y="350" width="20" height="20" rx="4"/>
    <rect x="382" y="350" width="20" height="20" rx="4"/>
    <rect x="414" y="350" width="20" height="20" rx="4"/>
    <rect x="350" y="382" width="20" height="20" rx="4"/>
    <rect x="414" y="382" width="20" height="20" rx="4"/>
    <rect x="350" y="414" width="20" height="20" rx="4"/>
    <rect x="382" y="414" width="20" height="20" rx="4"/>
    <rect x="414" y="414" width="20" height="20" rx="4"/>
  </g>
  <text x="256" y="486" text-anchor="middle" font-size="22" fill="#6b7280" font-family="Arial, sans-serif">请替换为你的微信二维码</text>
</svg>
